HIERARCHY
ROOT Hips
{
	OFFSET 0.000000 0.000000 0.000000
	CHANNELS 6 Xposition Yposition Zposition Zrotation Yrotation Xrotation 
	JOINT LHipJoint
	{
		OFFSET 0.000000 0.000000 0.000000
		CHANNELS 3 Zrotation Yrotation Xrotation
		JOINT LeftUpLeg
		{
			OFFSET 1.363060 -1.794630 0.839290
			CHANNELS 3 Zrotation Yrotation Xrotation
			JOINT LeftLeg
			{
				OFFSET 2.448110 -6.726130 0.000000
				CHANNELS 3 Zrotation Yrotation Xrotation
				JOINT LeftFoot
				{
					OFFSET 2.562200 -7.039590 0.000000
					CHANNELS 3 Zrotation Yrotation Xrotation
					JOINT LeftToeBase
					{
						OFFSET 0.157640 -0.433110 2.322550
						CHANNELS 3 Zrotation Yrotation Xrotation
						End Site
						{
							OFFSET 0.000000 0.000000 0.000000
						}
					}
				}
			}
		}
	}
	JOINT RHipJoint
	{
		OFFSET 0.000000 0.000000 0.000000
		CHANNELS 3 Zrotation Yrotation Xrotation
		JOINT RightUpLeg
		{
			OFFSET -1.305520 -1.794630 0.839290
			CHANNELS 3 Zrotation Yrotation Xrotation
			JOINT RightLeg
			{
				OFFSET -2.542530 -6.985550 0.000000
				CHANNELS 3 Zrotation Yrotation Xrotation
				JOINT RightFoot
				{
					OFFSET -2.568260 -7.056230 0.000000
					CHANNELS 3 Zrotation Yrotation Xrotation
					JOINT RightToeBase
					{
						OFFSET -0.164730 -0.452590 2.363150
						CHANNELS 3 Zrotation Yrotation Xrotation
						End Site
						{
							OFFSET 0.000000 0.000000 0.000000
						}
					}
				}
			}
		}
	}
	JOINT LowerBack
	{
		OFFSET 0.000000 0.000000 0.000000
		CHANNELS 3 Zrotation Yrotation Xrotation
		JOINT Spine
		{
			OFFSET 0.028270 2.035590 -0.193380
			CHANNELS 3 Zrotation Yrotation Xrotation
			JOINT Spine1
			{
				OFFSET 0.056720 2.048850 -0.042750
				CHANNELS 3 Zrotation Yrotation Xrotation
				JOINT Neck
				{
					OFFSET 0.000000 0.000000 0.000000
					CHANNELS 3 Zrotation Yrotation Xrotation
					JOINT Neck1
					{
						OFFSET -0.054170 1.746240 0.172020
						CHANNELS 3 Zrotation Yrotation Xrotation
						JOINT Head
						{
							OFFSET 0.104070 1.761360 -0.123970
							CHANNELS 3 Zrotation Yrotation Xrotation
							End Site
							{
								OFFSET 0.000000 0.000000 0.000000
							}
						}
					}
				}
				JOINT LeftShoulder
				{
					OFFSET 0.000000 0.000000 0.000000
					CHANNELS 3 Zrotation Yrotation Xrotation
					JOINT LeftArm
					{
						OFFSET 3.362410 1.200890 -0.311210
						CHANNELS 3 Zrotation Yrotation Xrotation
						JOINT LeftForeArm
						{
							OFFSET 4.983000 -0.000000 -0.000000
							CHANNELS 3 Zrotation Yrotation Xrotation
							JOINT LeftHand
							{
								OFFSET 3.483560 -0.000000 -0.000000
								CHANNELS 3 Zrotation Yrotation Xrotation
								JOINT LeftFingerBase
								{
									OFFSET 0.000000 0.000000 0.000000
									CHANNELS 3 Zrotation Yrotation Xrotation
									JOINT LeftHandIndex1
									{
										OFFSET 0.715260 -0.000000 -0.000000
										CHANNELS 3 Zrotation Yrotation Xrotation
										End Site
										{
											OFFSET 0.000000 0.000000 0.000000
										}
									}
								}
								JOINT LThumb
								{
									OFFSET 0.000000 0.000000 0.000000
									CHANNELS 3 Zrotation Yrotation Xrotation
									End Site
									{
										OFFSET 0.000000 0.000000 0.000000
									}
								}
							}
						}
					}
				}
				JOINT RightShoulder
				{
					OFFSET 0.000000 0.000000 0.000000
					CHANNELS 3 Zrotation Yrotation Xrotation
					JOINT RightArm
					{
						OFFSET -3.136600 1.374050 -0.404650
						CHANNELS 3 Zrotation Yrotation Xrotation
						JOINT RightForeArm
						{
							OFFSET -5.241900 -0.000000 -0.000000
							CHANNELS 3 Zrotation Yrotation Xrotation
							JOINT RightHand
							{
								OFFSET -3.444170 -0.000000 -0.000000
								CHANNELS 3 Zrotation Yrotation Xrotation
								JOINT RightFingerBase
								{
									OFFSET 0.000000 0.000000 0.000000
									CHANNELS 3 Zrotation Yrotation Xrotation
									JOINT RightHandIndex1
									{
										OFFSET -0.622530 -0.000000 -0.000000
										CHANNELS 3 Zrotation Yrotation Xrotation
										End Site
										{
											OFFSET 0.000000 0.000000 0.000000
										}
									}
								}
								JOINT RThumb
								{
									OFFSET 0.000000 0.000000 0.000000
									CHANNELS 3 Zrotation Yrotation Xrotation
									End Site
									{
										OFFSET 0.000000 0.000000 0.000000
									}
								}
							}
						}
					}
				}
			}
		}
	}
}
MOTION
Frames: 11
Frame Time: 0.008333
-0.677397 18.310423 5.604807 -0.715887 -5.415522 0.361875 0.800532 3.896752 3.684522 -14.097214 -8.839993 -2.231617 0.437913 6.231368 20.950306 -1.503196 11.647375 -19.181894 8.175400 -16.246800 -53.192100 -3.856622 -4.257613 2.347645 2.937029 1.899879 -1.709834 0.049240 0.695610 1.412411 0.303194 -0.924083 5.820425 0.000000 0.000000 0.000000 4.394069 2.442037 -7.388834 -4.651310 2.522861 22.871430 -1.403020 1.743159 -13.454937 -5.439116 -4.334801 -25.579554 6.261085 -5.319422 39.220836 1.394500 -1.519700 12.251000 3.229228 -7.311051 0.382903 -87.450901 9.147368 38.822875 34.540866 -42.467798 -11.807192 0.558282 0.546407 -3.651198 8.447835 -25.136166 -3.424300 -7.125000 0.000000 0.000000 -13.214300 4.649600 12.442000 -3.467965 9.155761 2.883074 94.843974 -12.462056 24.445852 -38.896007 45.240811 -12.890534 0.804064 -2.918202 16.182876 -11.916371 -34.163973 7.163800 7.125000 0.000000 0.000000 21.176500 -60.754600 -8.347400 
-0.678868 18.310619 5.596570 -0.706834 -5.335344 0.223988 0.784309 3.920636 3.746299 -14.063045 -8.816985 -2.230880 0.450812 6.237177 20.988391 -1.481609 11.530117 -19.094091 8.157900 -16.234200 -53.129400 -3.865201 -4.275399 2.399239 2.923888 1.905681 -1.693613 0.049281 0.706737 1.415741 0.306417 -0.913469 5.825075 0.000000 0.000000 0.000000 4.432615 2.446365 -7.457181 -4.771371 2.555938 23.528152 -1.372433 1.758165 -13.577514 -5.563638 -4.402987 -25.644452 6.477284 -5.456070 39.211079 1.454000 -1.558900 12.308900 3.282482 -7.267371 0.331661 -86.628477 9.040570 40.148283 36.666437 -44.068140 -13.170768 0.561708 0.582834 -4.828369 8.523102 -25.964860 -3.556600 -7.125000 0.000000 0.000000 -13.199400 3.808100 12.639700 -3.472350 9.096291 2.836342 94.288771 -12.568053 25.765625 -40.955555 46.634652 -14.109695 0.818532 -2.828905 16.325787 -12.755101 -34.328233 7.666200 7.125000 0.000000 0.000000 20.480200 -61.172100 -8.263100 
-0.677692 18.311403 5.587941 -0.728836 -5.274136 0.076447 0.778036 3.952448 3.819407 -14.011920 -8.733502 -2.263551 0.465483 6.245344 21.039013 -1.485352 11.492875 -18.969896 8.182000 -16.251500 -53.215500 -3.863743 -4.295852 2.465439 2.909678 1.912640 -1.674902 0.049060 0.719820 1.419624 0.310189 -0.901106 5.830810 0.000000 0.000000 0.000000 4.472511 2.453711 -7.588082 -4.803667 2.586825 24.342292 -1.368648 1.773633 -13.700461 -5.646166 -4.464007 -25.788624 6.638043 -5.572965 39.152187 1.498300 -1.596500 12.375100 3.335345 -7.217443 0.267112 -85.683703 8.950157 41.656156 39.387965 -45.947940 -14.977009 0.560616 0.626964 -5.714068 8.784849 -26.677326 -3.766200 -7.125000 0.000000 0.000000 -13.072800 3.047500 12.699400 -3.509176 9.028327 2.771270 93.528507 -12.655689 27.335343 -43.554452 48.256524 -15.730394 0.812207 -2.719031 16.745659 -14.290877 -34.544459 8.568500 7.125000 0.000000 0.000000 19.079100 -61.813800 -7.963900 
-0.676221 18.312482 5.577645 -0.746165 -5.225771 -0.078087 0.768159 3.984678 3.898027 -13.978681 -8.727590 -2.255254 0.475626 6.247024 21.073704 -1.491041 11.483104 -18.900015 8.180000 -16.250100 -53.208600 -3.864015 -4.319134 2.536482 2.894326 1.919971 -1.655459 0.048927 0.733555 1.423649 0.314117 -0.888113 5.836744 0.000000 0.000000 0.000000 4.496689 2.468365 -7.730571 -4.868253 2.629886 25.220531 -1.320879 1.799336 -13.829735 -5.530169 -4.479720 -25.902049 6.572694 -5.613359 38.928007 1.470400 -1.629100 12.386300 3.389449 -7.162092 0.192835 -84.510859 8.856548 43.454470 42.786709 -48.035847 -17.322985 0.556262 0.678946 -6.106665 9.518459 -27.269531 -4.195900 -7.125000 0.000000 0.000000 -12.667700 2.331700 12.453800 -3.573198 8.956415 2.686172 92.488396 -12.730775 29.589523 -46.781832 50.040574 -17.785309 0.856466 -2.594429 16.482867 -15.597818 -34.788365 9.381800 7.125000 0.000000 0.000000 17.920200 -62.451600 -7.732300 
-0.676319 18.312580 5.566564 -0.678228 -5.070305 -0.269439 0.751619 4.013364 3.981225 -14.029748 -8.821556 -2.190817 0.486753 6.245848 21.109204 -1.477162 11.410365 -18.854615 8.164400 -16.238800 -53.152600 -3.868516 -4.348046 2.613661 2.878249 1.927513 -1.635843 0.048900 0.747638 1.427643 0.318042 -0.874822 5.842762 0.000000 0.000000 0.000000 4.427231 2.446061 -7.872288 -4.995217 2.633643 26.155013 -1.205497 1.813555 -13.962375 -5.517571 -4.506606 -25.981341 6.633158 -5.682986 38.611646 1.488100 -1.667400 12.382700 3.480345 -7.105964 0.109527 -83.169457 8.631373 45.436878 46.753200 -50.147888 -20.183485 0.555433 0.731588 -6.000699 10.813429 -28.044207 -4.947100 -7.125000 0.000000 0.000000 -11.952300 1.349600 11.932000 -3.649015 8.875280 2.568652 91.184627 -12.715907 32.213267 -50.676789 51.858663 -20.290904 0.964740 -2.462359 16.111711 -15.798712 -34.610218 9.512900 7.125000 0.000000 0.000000 17.609300 -62.476600 -7.604100 
-0.676907 18.312482 5.553130 -0.630031 -4.905503 -0.409726 0.735709 4.036074 4.045718 -14.032189 -8.793165 -2.237067 0.499402 6.248959 21.144193 -1.478229 11.353713 -18.701062 8.207000 -16.269400 -53.305000 -3.877240 -4.371457 2.674474 2.864437 1.934205 -1.619969 0.048923 0.759555 1.431187 0.321325 -0.863448 5.847656 0.000000 0.000000 0.000000 4.396604 2.433711 -7.951787 -5.132510 2.652373 26.910519 -1.128605 1.828115 -14.080789 -5.667609 -4.564636 -25.986926 6.903218 -5.816256 38.364378 1.572600 -1.709500 12.391500 3.574689 -7.062547 0.035211 -81.749469 8.209060 47.360135 51.199064 -52.130082 -23.497327 0.556536 0.773281 -5.575877 11.923435 -28.801044 -5.637500 -7.125000 0.000000 0.000000 -11.356400 0.401600 11.505400 -3.704411 8.803203 2.439306 89.862523 -12.656606 34.309088 -55.179480 53.551050 -23.273025 1.091768 -2.331857 16.403639 -15.253931 -33.889511 9.118200 7.125000 0.000000 0.000000 17.676300 -61.852200 -7.373200 
-0.675632 18.313953 5.535675 -0.590059 -4.891808 -0.424195 0.704109 4.041594 4.074296 -14.021690 -8.736683 -2.390563 0.506575 6.259944 21.174270 -1.492374 11.364402 -18.591824 8.229100 -16.285200 -53.383600 -3.905173 -4.383057 2.695875 2.853584 1.938436 -1.610360 0.049448 0.766897 1.433609 0.323318 -0.856103 5.850002 0.000000 0.000000 0.000000 4.460070 2.481754 -7.894208 -5.416845 2.761383 27.271913 -1.038344 1.876229 -14.215402 -5.671157 -4.585537 -25.895549 7.066865 -5.910727 38.252510 1.616000 -1.735700 12.390700 3.639795 -7.031036 -0.010529 -80.313975 7.658906 49.089920 56.061358 -53.872908 -27.219157 0.556527 0.804074 -5.343271 12.386677 -29.352081 -5.979400 -7.125000 0.000000 0.000000 -11.129200 -0.244800 11.393400 -3.714126 8.760327 2.317924 88.616194 -12.602153 36.135500 -60.263341 55.011423 -26.809879 1.205379 -2.202530 16.576574 -15.229888 -33.297139 9.034600 7.125000 0.000000 0.000000 17.284300 -61.454100 -7.041200 
-0.673769 18.316895 5.517534 -0.547157 -4.857702 -0.379833 0.677919 4.036918 4.083644 -14.033591 -8.823769 -2.533559 0.510735 6.274847 21.207869 -1.503497 11.391910 -18.556254 8.224200 -16.281700 -53.366200 -3.928221 -4.388919 2.702011 2.846931 1.940244 -1.605129 0.050012 0.770482 1.434724 0.324160 -0.852456 5.850906 0.000000 0.000000 0.000000 4.458543 2.508654 -7.757868 -5.658368 2.835007 27.412433 -0.915478 1.913851 -14.385209 -5.491631 -4.577059 -25.819704 6.942491 -5.931881 38.349676 1.571800 -1.756500 12.423300 3.668312 -7.003839 -0.033732 -78.908451 7.042404 50.668441 61.397824 -55.333586 -31.407422 0.548662 0.832256 -5.637607 12.324793 -29.542943 -5.986500 -7.125000 0.000000 0.000000 -11.179100 -0.449900 11.486700 -3.724288 8.738658 2.190146 87.362367 -12.450986 38.117657 -65.733220 56.079795 -30.797201 1.306342 -2.076095 16.561366 -15.805039 -32.964263 9.329700 7.125000 0.000000 0.000000 16.436600 -61.416300 -6.670300 
-0.671612 18.320621 5.499001 -0.557964 -4.739221 -0.340161 0.679235 4.035826 4.090982 -14.012119 -8.970144 -2.655735 0.516967 6.290169 21.247865 -1.516028 11.411470 -18.488094 8.241200 -16.293800 -53.426900 -3.925238 -4.392377 2.714930 2.844342 1.940926 -1.601632 0.050085 0.772451 1.435117 0.324474 -0.850693 5.851806 0.000000 0.000000 0.000000 4.373209 2.505832 -7.606159 -5.641655 2.840281 27.542225 -0.847304 1.930732 -14.582850 -5.334667 -4.578401 -25.769418 6.735197 -5.935406 38.572538 1.510800 -1.780600 12.492200 3.668244 -6.977035 -0.050675 -77.563934 6.214949 52.314876 66.894846 -56.404503 -35.839187 0.526089 0.861584 -6.312744 12.246660 -29.418436 -5.933100 -7.125000 0.000000 0.000000 -11.210600 -0.339700 11.498700 -3.773053 8.720275 2.040004 86.014107 -12.144796 40.193763 -71.271085 56.635118 -35.062095 1.359312 -1.969442 16.593620 -18.101004 -32.147775 10.388200 7.125000 0.000000 0.000000 13.324800 -61.251000 -5.326900 
-0.668474 18.324445 5.477231 -0.539050 -4.543194 -0.301136 0.687840 4.031944 4.094824 -14.032875 -9.170246 -2.773881 0.522330 6.301483 21.279067 -1.520972 11.401154 -18.414137 8.238100 -16.291600 -53.415800 -3.914410 -4.395920 2.729457 2.843498 1.940713 -1.599206 0.050073 0.773275 1.434986 0.324389 -0.850174 5.852453 0.000000 0.000000 0.000000 4.216693 2.483807 -7.417140 -5.550715 2.810801 27.638348 -0.765556 1.940146 -14.808328 -5.186692 -4.569260 -25.675230 6.467606 -5.904325 38.818879 1.441000 -1.800500 12.556800 3.660865 -6.946540 -0.059392 -76.243797 5.122983 54.105369 72.159080 -57.059237 -40.207537 0.477341 0.893352 -6.884958 12.673059 -28.855612 -6.076800 -7.125000 0.000000 0.000000 -10.906800 0.120500 11.086800 -3.836612 8.697289 1.875273 84.539304 -11.674851 42.382497 -76.678407 56.703504 -39.516421 1.390069 -1.868388 16.537010 -21.664019 -31.233976 12.056100 7.125000 0.000000 0.000000 8.720800 -61.230100 -3.461900 
-0.665728 18.328074 5.455462 -0.553653 -4.392483 -0.249006 0.711657 4.030350 4.102105 -14.028839 -9.353913 -2.893534 0.526048 6.304534 21.293945 -1.508438 11.339583 -18.384031 8.196400 -16.261800 -53.267100 -3.886393 -4.400967 2.753398 2.844997 1.939909 -1.597685 0.049756 0.773304 1.434394 0.324046 -0.850664 5.853223 0.000000 0.000000 0.000000 4.002457 2.472321 -7.320016 -5.292301 2.767142 27.793503 -0.713013 1.953935 -14.993307 -5.061569 -4.566854 -25.615494 6.121691 -5.849778 39.121844 1.355900 -1.823700 12.649000 3.636908 -6.908316 -0.066327 -74.884171 3.871311 55.870034 77.190743 -57.378874 -44.514808 0.407024 0.918612 -7.261823 13.254739 -28.158107 -6.277100 -7.125000 0.000000 0.000000 -10.487000 0.692600 10.538200 -3.933299 8.664889 1.709476 82.940513 -11.000940 44.663571 -81.762233 56.388835 -43.940713 1.459546 -1.739470 16.421378 -23.550975 -31.141280 13.127300 7.125000 0.000000 0.000000 6.499600 -61.703200 -2.648100 
